<?xml version="1.0" standalone="no"?><!DOCTYPE svg PUBLIC "-//W3C//DTD SVG 1.1//EN" "http://www.w3.org/Graphics/SVG/1.1/DTD/svg11.dtd"><svg t="1778598935148" class="icon" viewBox="0 0 2587 1024" version="1.1" xmlns="http://www.w3.org/2000/svg" p-id="10035" xmlns:xlink="http://www.w3.org/1999/xlink" width="505.2734375" height="200"><path d="M142.09563801 545.59656164l0-86.95504964a414.68107308 414.68107308 0 0 1 415.87197966-415.87197968L2002.17758346 42.76953233C2255.48142626 42.76953233 2463.41741544 246.92486781 2463.41741544 504.00936433 2463.41741544 757.31320584 2255.48142626 961.46854131 2002.17758345 961.46854131l-1444.20996578 0a414.68107308 414.68107308 0 0 1-415.87197966-415.87197967z" fill="#222222" p-id="10036"></path><path d="M444.54798685 231.80225037l-257.08449651 79.39374092c-3.78065372 0-3.78065372 3.78065372-3.78065373 7.56130872l7.56130873 0 249.5231878-79.39374093q-45.36785233 119.09061203-45.36785233 272.20711397c-3.78065372 98.29701338 11.34196243 181.47140931 41.58719733 257.08449652l-249.5231878-79.39374222c-3.78065372 0-3.78065372 0-7.56130874 3.78065501 0 3.78065372 0 3.78065372 3.78065501 7.56130872l257.08449653 75.61308721c11.34196243 26.46457988 22.68392617 45.36785233 37.80654361 68.0517785 0 3.78065372 3.78065372 3.78065372 7.56130872 0a11.70112561 11.70112561 0 0 0 3.78065371-7.56130871c-56.70981476-83.17439594-83.17439594-192.81337174-83.17439593-325.13627503s26.46457988-245.74253279 83.17439593-344.03954747c0-3.78065372 0-7.56130871-3.78065371-7.56130873s-7.56130871 0-7.56130872 3.78065502q-22.68392617 28.35490737-34.0258899 68.0517785z m1349.69360741-3.78065502c-15.12261745-49.14850605-34.0258886-86.95504965-60.49046978-113.41963082q-5.67098122-5.67098122-11.34196373 0t0 11.34196373c56.70981476 60.49046977 94.51635837 211.71664419 94.51635967 419.65263338 0 143.66486569-30.24523488 257.08449652-94.51635967 336.47823876-3.78065372 3.78065372 0 7.56130871 0 11.34196242 3.78065372 3.78065372 7.56130871 0 11.34196373 0 26.46457988-34.0258886 45.36785233-71.8324322 60.49046978-113.41963082L2353.77843962 696.82273608l-1e-8-7.56130873-551.97553664 79.39374222c22.68392616-64.27112349 30.24523488-136.10355698 30.24523488-223.05860793q0-187.14239051-34.02588988-306.23300256L2353.77843962 322.53795502l0-7.56130871-559.53684536-86.95505096z m-1652.14595625 317.57496629l0-86.95504964a414.68107308 414.68107308 0 0 1 415.87197966-415.87197968L2002.17758346 42.76953233C2255.48142626 42.76953233 2463.41741544 246.92486781 2463.41741544 504.00936433S2255.48142626 961.46854131 2002.17758345 961.46854131l-1444.20996578 0a414.68107308 414.68107308 0 0 1-415.87197966-415.87197967zM758.34229943 897.19741784L1007.86548724 897.19741784l49.14850604-105.85832209-94.51635837 0c-34.02588859 0-75.61308721 18.90327116-120.98093953 52.92916104l-83.17439595 52.92916105z m0-790.15676203l86.95504965 52.92916104c45.36785234 34.0258886 86.95504965 52.92916106 120.98093954 52.92916106l94.51635966 0-49.14850733-105.8583221zM1045.67203084 897.19741784L1582.52495005 897.19741784l-155.00682943-83.17439593c-37.80654361-11.34196244-75.61308721-18.90327116-113.41963082-18.90327246l-219.27795291 0z m0-786.37610701l49.14850605 102.07766708L1314.0984898 212.8989779c37.80654361 0 75.61308721-7.56130871 113.41963082-18.90327115l155.00682943-83.17439592zM2104.25525182 878.29414539c34.0258886 22.68392616 71.8324322 30.24523488 105.8583221 15.12261744 52.92916105-18.90327115 132.32290198-49.14850605 139.8842107-166.34879187-86.95504965 86.95504965-75.61308721 79.39374093-124.76159326 109.63897711-30.24523488 18.90327116-71.8324322 30.24523488-120.98093954 41.58719732z m0-752.35021713c49.14850605 7.56130871 90.73570465 22.68392616 124.76159326 41.58719732 49.14850605 30.24523488 37.80654361 22.68392617 124.76159454 109.63897711-7.56130871-117.20028453-86.95504966-147.44551941-139.88421198-166.34879186-37.80654361-15.12261745-75.61308721-11.34196243-109.63897582 15.12261743z m-1655.92660996 389.4073985c3.78065372 196.59402676 75.61308721 359.16216362 151.22617442 344.03954748 49.14850605-11.34196243 124.76159325-30.24523488 223.05860665-52.92916107 34.0258886-11.34196243 49.14850605-34.0258886 49.14850733-64.27112476l0-476.36244944c-11.34196244-37.80654361-26.46457988-60.49046977-49.14850733-64.27112349-34.0258886-7.56130871-147.44551941-49.14850605-196.59402677-49.14850734s-79.39374093-7.56130871-109.63897581 52.92916105c-34.0258886 56.70981476-75.61308721 113.41963082-68.05177849 310.01365757zM1446.42139307 795.11974945c41.58719732 18.90327116 132.32290199 45.36785233 162.56813687 60.49046977 22.68392616 11.34196243 41.58719732 11.34196243 60.49046977 0 56.70981476-68.0517785 86.95504966-170.12944558 86.95505094-306.23300256 0-200.37468047-30.24523488-313.7943113-52.92916105-351.60085619-22.68392616-41.58719732-41.58719732-60.49046977-98.29701338-41.58719732s-124.76159325 49.14850605-147.44552071 56.70981476-56.70981476 15.12261745-37.80654361 64.27112478c15.12261745 52.92916105 37.80654361 120.98093954 37.80654361 211.71664419s-15.12261745 200.37468047-26.46457988 215.49729791c-3.78065372 18.90327116-26.46457988 71.8324322 15.12261744 90.73570466zM2353.77843962 507.79001804c0 45.36785233-3.78065372 94.51635837-3.780655 124.76159456s7.56130871 30.24523488 11.34196374 26.46457987c7.56130871-3.78065372 34.0258886-18.90327116 37.8065436-71.8324322s3.78065372-128.54224827-1e-8-158.78748315-22.68392617-83.17439594-34.02588988-86.95505095-18.90327116 3.78065372-18.90327116 30.24523489c3.78065372 30.24523488 7.56130871 90.73570465 7.56130871 136.10355698z" fill="#e16531" p-id="10037"></path></svg>